<?xml version="1.0" encoding="utf-8"?>
<!-- Generator: Adobe Illustrator 27.3.1, SVG Export Plug-In . SVG Version: 6.00 Build 0)  -->
<svg version="1.1" id="Camada_2_00000000904116391762994350000011839148196316553091_"
	 xmlns="http://www.w3.org/2000/svg" xmlns:xlink="http://www.w3.org/1999/xlink" x="0px" y="0px" viewBox="0 0 400 400"
	 style="enable-background:new 0 0 400 400;" xml:space="preserve">
<style type="text/css">
	.st0{fill:none;stroke:#BCBEC0;stroke-width:0.5;stroke-miterlimit:10;}
	.st1{fill:none;stroke:#231F20;stroke-width:2;stroke-miterlimit:10;}
	.st2{fill:#231F20;}
	.st3{enable-background:new    ;}
	.st4{fill:none;stroke:#EF4136;stroke-miterlimit:10;}
	.st5{fill:#1C75BC;}
	.st6{fill:none;stroke:#1C75BC;stroke-width:2;stroke-miterlimit:10;}
	.st7{opacity:0.2;fill:#1C75BC;stroke:#1C75BC;stroke-width:2;stroke-miterlimit:10;enable-background:new    ;}
	.st8{fill:#EF4136;}
	.st9{fill:none;stroke:#EF4136;stroke-width:2;stroke-miterlimit:10;}
</style>
<g id="Layer_1">
	<g>
		<rect x="200" y="177.1" class="st0" width="22.9" height="22.9"/>
		<rect x="200" y="154.3" class="st0" width="22.9" height="22.9"/>
		<rect x="200" y="131.4" class="st0" width="22.9" height="22.9"/>
		<rect x="200" y="108.5" class="st0" width="22.9" height="22.9"/>
		<rect x="200" y="85.7" class="st0" width="22.9" height="22.9"/>
		<rect x="200" y="62.8" class="st0" width="22.9" height="22.9"/>
		<rect x="200" y="39.9" class="st0" width="22.9" height="22.9"/>
		<rect x="200" y="17" class="st0" width="22.9" height="22.9"/>
		<rect x="222.9" y="177.1" class="st0" width="22.9" height="22.9"/>
		<rect x="222.9" y="154.3" class="st0" width="22.9" height="22.9"/>
		<rect x="222.9" y="131.4" class="st0" width="22.9" height="22.9"/>
		<rect x="222.9" y="108.5" class="st0" width="22.9" height="22.9"/>
		<rect x="222.9" y="85.7" class="st0" width="22.9" height="22.9"/>
		<rect x="222.9" y="62.8" class="st0" width="22.9" height="22.9"/>
		<rect x="222.9" y="39.9" class="st0" width="22.9" height="22.9"/>
		<rect x="222.9" y="17" class="st0" width="22.9" height="22.9"/>
		<rect x="245.7" y="177.1" class="st0" width="22.9" height="22.9"/>
		<rect x="245.7" y="154.3" class="st0" width="22.9" height="22.9"/>
		<rect x="245.7" y="131.4" class="st0" width="22.9" height="22.9"/>
		<rect x="245.7" y="108.5" class="st0" width="22.9" height="22.9"/>
		<rect x="245.7" y="85.7" class="st0" width="22.9" height="22.9"/>
		<rect x="245.7" y="62.8" class="st0" width="22.9" height="22.9"/>
		<rect x="245.7" y="39.9" class="st0" width="22.9" height="22.9"/>
		<rect x="245.7" y="17" class="st0" width="22.9" height="22.9"/>
		<rect x="268.6" y="177.1" class="st0" width="22.9" height="22.9"/>
		<rect x="268.6" y="154.3" class="st0" width="22.9" height="22.9"/>
		<rect x="268.6" y="131.4" class="st0" width="22.9" height="22.9"/>
		<rect x="268.6" y="108.5" class="st0" width="22.9" height="22.9"/>
		<rect x="268.6" y="85.7" class="st0" width="22.9" height="22.9"/>
		<rect x="268.6" y="62.8" class="st0" width="22.9" height="22.9"/>
		<rect x="268.6" y="39.9" class="st0" width="22.9" height="22.9"/>
		<rect x="268.6" y="17" class="st0" width="22.9" height="22.9"/>
		<rect x="291.5" y="177.1" class="st0" width="22.9" height="22.9"/>
		<rect x="291.5" y="154.3" class="st0" width="22.9" height="22.9"/>
		<rect x="291.5" y="131.4" class="st0" width="22.9" height="22.9"/>
		<rect x="291.5" y="108.5" class="st0" width="22.9" height="22.9"/>
		<rect x="291.5" y="85.7" class="st0" width="22.9" height="22.9"/>
		<rect x="291.5" y="62.8" class="st0" width="22.9" height="22.9"/>
		<rect x="291.5" y="39.9" class="st0" width="22.9" height="22.9"/>
		<rect x="291.5" y="17" class="st0" width="22.9" height="22.9"/>
		<rect x="314.4" y="177.1" class="st0" width="22.9" height="22.9"/>
		<rect x="314.4" y="154.3" class="st0" width="22.9" height="22.9"/>
		<rect x="314.4" y="131.4" class="st0" width="22.9" height="22.9"/>
		<rect x="314.4" y="108.5" class="st0" width="22.9" height="22.9"/>
		<rect x="314.4" y="85.7" class="st0" width="22.9" height="22.9"/>
		<rect x="314.4" y="62.8" class="st0" width="22.9" height="22.9"/>
		<rect x="314.4" y="39.9" class="st0" width="22.9" height="22.9"/>
		<rect x="314.4" y="17" class="st0" width="22.9" height="22.9"/>
		<rect x="337.2" y="177.1" class="st0" width="22.9" height="22.9"/>
		<rect x="337.2" y="154.3" class="st0" width="22.9" height="22.9"/>
		<rect x="337.2" y="131.4" class="st0" width="22.9" height="22.9"/>
		<rect x="337.2" y="108.5" class="st0" width="22.9" height="22.9"/>
		<rect x="337.2" y="85.7" class="st0" width="22.9" height="22.9"/>
		<rect x="337.2" y="62.8" class="st0" width="22.9" height="22.9"/>
		<rect x="337.2" y="39.9" class="st0" width="22.9" height="22.9"/>
		<rect x="337.2" y="17" class="st0" width="22.9" height="22.9"/>
		<rect x="360.1" y="177.1" class="st0" width="22.9" height="22.9"/>
		<rect x="360.1" y="154.3" class="st0" width="22.9" height="22.9"/>
		<rect x="360.1" y="131.4" class="st0" width="22.9" height="22.9"/>
		<rect x="360.1" y="108.5" class="st0" width="22.9" height="22.9"/>
		<rect x="360.1" y="85.7" class="st0" width="22.9" height="22.9"/>
		<rect x="360.1" y="62.8" class="st0" width="22.9" height="22.9"/>
		<rect x="360.1" y="39.9" class="st0" width="22.9" height="22.9"/>
		<rect x="360.1" y="17" class="st0" width="22.9" height="22.9"/>
	</g>
	<g>
		<rect x="200" y="360.1" class="st0" width="22.9" height="22.9"/>
		<rect x="200" y="337.2" class="st0" width="22.9" height="22.9"/>
		<rect x="200" y="314.4" class="st0" width="22.9" height="22.9"/>
		<rect x="200" y="291.5" class="st0" width="22.9" height="22.9"/>
		<rect x="200" y="268.6" class="st0" width="22.9" height="22.9"/>
		<rect x="200" y="245.7" class="st0" width="22.9" height="22.9"/>
		<rect x="200" y="222.9" class="st0" width="22.9" height="22.9"/>
		<rect x="200" y="200" class="st0" width="22.9" height="22.9"/>
		<rect x="222.9" y="360.1" class="st0" width="22.9" height="22.9"/>
		<rect x="222.9" y="337.2" class="st0" width="22.9" height="22.9"/>
		<rect x="222.9" y="314.4" class="st0" width="22.9" height="22.9"/>
		<rect x="222.9" y="291.5" class="st0" width="22.9" height="22.9"/>
		<rect x="222.9" y="268.6" class="st0" width="22.9" height="22.9"/>
		<rect x="222.9" y="245.7" class="st0" width="22.9" height="22.9"/>
		<rect x="222.9" y="222.9" class="st0" width="22.9" height="22.9"/>
		<rect x="222.9" y="200" class="st0" width="22.9" height="22.9"/>
		<rect x="245.7" y="360.1" class="st0" width="22.9" height="22.9"/>
		<rect x="245.7" y="337.2" class="st0" width="22.9" height="22.9"/>
		<rect x="245.7" y="314.4" class="st0" width="22.9" height="22.9"/>
		<rect x="245.7" y="291.5" class="st0" width="22.9" height="22.9"/>
		<rect x="245.7" y="268.6" class="st0" width="22.9" height="22.9"/>
		<rect x="245.7" y="245.7" class="st0" width="22.9" height="22.9"/>
		<rect x="245.7" y="222.9" class="st0" width="22.9" height="22.9"/>
		<rect x="245.7" y="200" class="st0" width="22.9" height="22.9"/>
		<rect x="268.6" y="360.1" class="st0" width="22.9" height="22.9"/>
		<rect x="268.6" y="337.2" class="st0" width="22.9" height="22.9"/>
		<rect x="268.6" y="314.4" class="st0" width="22.9" height="22.9"/>
		<rect x="268.6" y="291.5" class="st0" width="22.9" height="22.9"/>
		<rect x="268.6" y="268.6" class="st0" width="22.9" height="22.9"/>
		<rect x="268.6" y="245.7" class="st0" width="22.9" height="22.9"/>
		<rect x="268.6" y="222.9" class="st0" width="22.9" height="22.9"/>
		<rect x="268.6" y="200" class="st0" width="22.9" height="22.9"/>
		<rect x="291.5" y="360.1" class="st0" width="22.9" height="22.9"/>
		<rect x="291.5" y="337.2" class="st0" width="22.9" height="22.9"/>
		<rect x="291.5" y="314.4" class="st0" width="22.9" height="22.9"/>
		<rect x="291.5" y="291.5" class="st0" width="22.9" height="22.9"/>
		<rect x="291.5" y="268.6" class="st0" width="22.9" height="22.9"/>
		<rect x="291.5" y="245.7" class="st0" width="22.9" height="22.9"/>
		<rect x="291.5" y="222.9" class="st0" width="22.9" height="22.9"/>
		<rect x="291.5" y="200" class="st0" width="22.9" height="22.9"/>
		<rect x="314.4" y="360.1" class="st0" width="22.9" height="22.9"/>
		<rect x="314.4" y="337.2" class="st0" width="22.9" height="22.9"/>
		<rect x="314.4" y="314.4" class="st0" width="22.9" height="22.9"/>
		<rect x="314.4" y="291.5" class="st0" width="22.9" height="22.9"/>
		<rect x="314.4" y="268.6" class="st0" width="22.9" height="22.9"/>
		<rect x="314.4" y="245.7" class="st0" width="22.9" height="22.9"/>
		<rect x="314.4" y="222.9" class="st0" width="22.9" height="22.9"/>
		<rect x="314.4" y="200" class="st0" width="22.9" height="22.9"/>
		<rect x="337.2" y="360.1" class="st0" width="22.9" height="22.9"/>
		<rect x="337.2" y="337.2" class="st0" width="22.9" height="22.9"/>
		<rect x="337.2" y="314.4" class="st0" width="22.9" height="22.9"/>
		<rect x="337.2" y="291.5" class="st0" width="22.9" height="22.9"/>
		<rect x="337.2" y="268.6" class="st0" width="22.9" height="22.9"/>
		<rect x="337.2" y="245.7" class="st0" width="22.9" height="22.9"/>
		<rect x="337.2" y="222.9" class="st0" width="22.9" height="22.9"/>
		<rect x="337.2" y="200" class="st0" width="22.9" height="22.9"/>
		<rect x="360.1" y="360.1" class="st0" width="22.9" height="22.9"/>
		<rect x="360.1" y="337.2" class="st0" width="22.9" height="22.9"/>
		<rect x="360.1" y="314.4" class="st0" width="22.9" height="22.9"/>
		<rect x="360.1" y="291.5" class="st0" width="22.9" height="22.9"/>
		<rect x="360.1" y="268.6" class="st0" width="22.9" height="22.9"/>
		<rect x="360.1" y="245.7" class="st0" width="22.9" height="22.9"/>
		<rect x="360.1" y="222.9" class="st0" width="22.9" height="22.9"/>
		<rect x="360.1" y="200" class="st0" width="22.9" height="22.9"/>
	</g>
	<g>
		<rect x="17" y="360.1" class="st0" width="22.9" height="22.9"/>
		<rect x="17" y="337.2" class="st0" width="22.9" height="22.9"/>
		<rect x="17" y="314.4" class="st0" width="22.9" height="22.9"/>
		<rect x="17" y="291.5" class="st0" width="22.9" height="22.9"/>
		<rect x="17" y="268.6" class="st0" width="22.9" height="22.9"/>
		<rect x="17" y="245.7" class="st0" width="22.9" height="22.9"/>
		<rect x="17" y="222.9" class="st0" width="22.9" height="22.9"/>
		<rect x="17" y="200" class="st0" width="22.9" height="22.9"/>
		<rect x="39.9" y="360.1" class="st0" width="22.9" height="22.9"/>
		<rect x="39.9" y="337.2" class="st0" width="22.9" height="22.9"/>
		<rect x="39.9" y="314.4" class="st0" width="22.9" height="22.9"/>
		<rect x="39.9" y="291.5" class="st0" width="22.9" height="22.9"/>
		<rect x="39.9" y="268.6" class="st0" width="22.9" height="22.9"/>
		<rect x="39.9" y="245.7" class="st0" width="22.9" height="22.9"/>
		<rect x="39.9" y="222.9" class="st0" width="22.9" height="22.9"/>
		<rect x="39.9" y="200" class="st0" width="22.9" height="22.9"/>
		<rect x="62.8" y="360.1" class="st0" width="22.9" height="22.9"/>
		<rect x="62.8" y="337.2" class="st0" width="22.9" height="22.9"/>
		<rect x="62.8" y="314.4" class="st0" width="22.9" height="22.9"/>
		<rect x="62.8" y="291.5" class="st0" width="22.9" height="22.9"/>
		<rect x="62.8" y="268.6" class="st0" width="22.9" height="22.9"/>
		<rect x="62.8" y="245.7" class="st0" width="22.9" height="22.9"/>
		<rect x="62.8" y="222.9" class="st0" width="22.9" height="22.9"/>
		<rect x="62.8" y="200" class="st0" width="22.9" height="22.9"/>
		<rect x="85.7" y="360.1" class="st0" width="22.9" height="22.9"/>
		<rect x="85.7" y="337.2" class="st0" width="22.9" height="22.9"/>
		<rect x="85.7" y="314.4" class="st0" width="22.9" height="22.9"/>
		<rect x="85.7" y="291.5" class="st0" width="22.9" height="22.9"/>
		<rect x="85.7" y="268.6" class="st0" width="22.9" height="22.9"/>
		<rect x="85.7" y="245.7" class="st0" width="22.9" height="22.9"/>
		<rect x="85.7" y="222.9" class="st0" width="22.9" height="22.9"/>
		<rect x="85.7" y="200" class="st0" width="22.9" height="22.9"/>
		<rect x="108.5" y="360.1" class="st0" width="22.9" height="22.9"/>
		<rect x="108.5" y="337.2" class="st0" width="22.9" height="22.9"/>
		<rect x="108.5" y="314.4" class="st0" width="22.9" height="22.9"/>
		<rect x="108.5" y="291.5" class="st0" width="22.9" height="22.9"/>
		<rect x="108.5" y="268.6" class="st0" width="22.9" height="22.9"/>
		<rect x="108.5" y="245.7" class="st0" width="22.9" height="22.9"/>
		<rect x="108.5" y="222.9" class="st0" width="22.9" height="22.9"/>
		<rect x="108.5" y="200" class="st0" width="22.9" height="22.9"/>
		<rect x="131.4" y="360.1" class="st0" width="22.9" height="22.9"/>
		<rect x="131.4" y="337.2" class="st0" width="22.9" height="22.9"/>
		<rect x="131.4" y="314.4" class="st0" width="22.9" height="22.9"/>
		<rect x="131.4" y="291.5" class="st0" width="22.9" height="22.9"/>
		<rect x="131.4" y="268.6" class="st0" width="22.9" height="22.9"/>
		<rect x="131.4" y="245.7" class="st0" width="22.9" height="22.9"/>
		<rect x="131.4" y="222.9" class="st0" width="22.9" height="22.9"/>
		<rect x="131.4" y="200" class="st0" width="22.9" height="22.9"/>
		<rect x="154.3" y="360.1" class="st0" width="22.9" height="22.9"/>
		<rect x="154.3" y="337.2" class="st0" width="22.9" height="22.9"/>
		<rect x="154.3" y="314.4" class="st0" width="22.9" height="22.9"/>
		<rect x="154.3" y="291.5" class="st0" width="22.9" height="22.9"/>
		<rect x="154.3" y="268.6" class="st0" width="22.9" height="22.9"/>
		<rect x="154.3" y="245.7" class="st0" width="22.9" height="22.9"/>
		<rect x="154.3" y="222.9" class="st0" width="22.9" height="22.9"/>
		<rect x="154.3" y="200" class="st0" width="22.9" height="22.9"/>
		<rect x="177.1" y="360.1" class="st0" width="22.9" height="22.9"/>
		<rect x="177.1" y="337.2" class="st0" width="22.9" height="22.9"/>
		<rect x="177.1" y="314.4" class="st0" width="22.9" height="22.9"/>
		<rect x="177.1" y="291.5" class="st0" width="22.9" height="22.9"/>
		<rect x="177.1" y="268.6" class="st0" width="22.9" height="22.9"/>
		<rect x="177.1" y="245.7" class="st0" width="22.9" height="22.9"/>
		<rect x="177.1" y="222.9" class="st0" width="22.9" height="22.9"/>
		<rect x="177.1" y="200" class="st0" width="22.9" height="22.9"/>
	</g>
	<g>
		<rect x="17" y="177.1" class="st0" width="22.9" height="22.9"/>
		<rect x="17" y="154.3" class="st0" width="22.9" height="22.9"/>
		<rect x="17" y="131.4" class="st0" width="22.9" height="22.9"/>
		<rect x="17" y="108.5" class="st0" width="22.9" height="22.9"/>
		<rect x="17" y="85.7" class="st0" width="22.9" height="22.9"/>
		<rect x="17" y="62.8" class="st0" width="22.9" height="22.9"/>
		<rect x="17" y="39.9" class="st0" width="22.9" height="22.9"/>
		<rect x="17" y="17" class="st0" width="22.9" height="22.9"/>
		<rect x="39.9" y="177.1" class="st0" width="22.9" height="22.9"/>
		<rect x="39.9" y="154.3" class="st0" width="22.9" height="22.9"/>
		<rect x="39.9" y="131.4" class="st0" width="22.9" height="22.9"/>
		<rect x="39.9" y="108.5" class="st0" width="22.9" height="22.9"/>
		<rect x="39.9" y="85.7" class="st0" width="22.9" height="22.9"/>
		<rect x="39.9" y="62.8" class="st0" width="22.9" height="22.9"/>
		<rect x="39.9" y="39.9" class="st0" width="22.9" height="22.9"/>
		<rect x="39.9" y="17" class="st0" width="22.9" height="22.9"/>
		<rect x="62.8" y="177.1" class="st0" width="22.9" height="22.9"/>
		<rect x="62.8" y="154.3" class="st0" width="22.9" height="22.9"/>
		<rect x="62.8" y="131.4" class="st0" width="22.9" height="22.9"/>
		<rect x="62.8" y="108.5" class="st0" width="22.9" height="22.9"/>
		<rect x="62.8" y="85.7" class="st0" width="22.9" height="22.9"/>
		<rect x="62.8" y="62.8" class="st0" width="22.9" height="22.9"/>
		<rect x="62.8" y="39.9" class="st0" width="22.9" height="22.9"/>
		<rect x="62.8" y="17" class="st0" width="22.9" height="22.9"/>
		<rect x="85.7" y="177.1" class="st0" width="22.9" height="22.9"/>
		<rect x="85.7" y="154.3" class="st0" width="22.9" height="22.9"/>
		<rect x="85.7" y="131.4" class="st0" width="22.9" height="22.9"/>
		<rect x="85.7" y="108.5" class="st0" width="22.9" height="22.9"/>
		<rect x="85.7" y="85.7" class="st0" width="22.9" height="22.9"/>
		<rect x="85.7" y="62.8" class="st0" width="22.9" height="22.9"/>
		<rect x="85.7" y="39.9" class="st0" width="22.9" height="22.9"/>
		<rect x="85.7" y="17" class="st0" width="22.9" height="22.9"/>
		<rect x="108.5" y="177.1" class="st0" width="22.9" height="22.9"/>
		<rect x="108.5" y="154.3" class="st0" width="22.9" height="22.9"/>
		<rect x="108.5" y="131.4" class="st0" width="22.9" height="22.9"/>
		<rect x="108.5" y="108.5" class="st0" width="22.9" height="22.9"/>
		<rect x="108.5" y="85.7" class="st0" width="22.9" height="22.9"/>
		<rect x="108.5" y="62.8" class="st0" width="22.9" height="22.9"/>
		<rect x="108.5" y="39.9" class="st0" width="22.9" height="22.9"/>
		<rect x="108.5" y="17" class="st0" width="22.9" height="22.9"/>
		<rect x="131.4" y="177.1" class="st0" width="22.9" height="22.9"/>
		<rect x="131.4" y="154.3" class="st0" width="22.9" height="22.9"/>
		<rect x="131.4" y="131.4" class="st0" width="22.9" height="22.9"/>
		<rect x="131.4" y="108.5" class="st0" width="22.9" height="22.9"/>
		<rect x="131.4" y="85.7" class="st0" width="22.9" height="22.9"/>
		<rect x="131.4" y="62.8" class="st0" width="22.9" height="22.9"/>
		<rect x="131.4" y="39.9" class="st0" width="22.9" height="22.9"/>
		<rect x="131.4" y="17" class="st0" width="22.9" height="22.9"/>
		<rect x="154.3" y="177.1" class="st0" width="22.9" height="22.9"/>
		<rect x="154.3" y="154.3" class="st0" width="22.9" height="22.9"/>
		<rect x="154.3" y="131.4" class="st0" width="22.9" height="22.9"/>
		<rect x="154.3" y="108.5" class="st0" width="22.9" height="22.9"/>
		<rect x="154.3" y="85.7" class="st0" width="22.9" height="22.9"/>
		<rect x="154.3" y="62.8" class="st0" width="22.9" height="22.9"/>
		<rect x="154.3" y="39.9" class="st0" width="22.9" height="22.9"/>
		<rect x="154.3" y="17" class="st0" width="22.9" height="22.9"/>
		<rect x="177.1" y="177.1" class="st0" width="22.9" height="22.9"/>
		<rect x="177.1" y="154.3" class="st0" width="22.9" height="22.9"/>
		<rect x="177.1" y="131.4" class="st0" width="22.9" height="22.9"/>
		<rect x="177.1" y="108.5" class="st0" width="22.9" height="22.9"/>
		<rect x="177.1" y="85.7" class="st0" width="22.9" height="22.9"/>
		<rect x="177.1" y="62.8" class="st0" width="22.9" height="22.9"/>
		<rect x="177.1" y="39.9" class="st0" width="22.9" height="22.9"/>
		<rect x="177.1" y="17" class="st0" width="22.9" height="22.9"/>
	</g>
	<g>
		<line class="st1" x1="200" y1="400" x2="200" y2="13.3"/>
		<polygon class="st2" points="204.4,16.3 200,0 195.6,16.3 		"/>
	</g>
	<g>
		<line class="st1" x1="0" y1="200" x2="386.7" y2="200"/>
		<polygon class="st2" points="383.7,204.4 400,200 383.7,195.6 		"/>
	</g>
	<g class="st3">
		<path d="M207.4,207.4c0,2.7-1,4.1-2.7,4.1c-1.5,0-2.6-1.4-2.6-4c0-2.6,1.1-4.1,2.7-4.1C206.5,203.5,207.4,205,207.4,207.4z
			 M203.2,207.6c0,2,0.6,3.2,1.6,3.2c1.1,0,1.6-1.3,1.6-3.2c0-1.9-0.5-3.2-1.6-3.2C203.9,204.3,203.2,205.4,203.2,207.6z"/>
	</g>
	<g class="st3">
		<path d="M205,230.7v0.8h-3v-0.8H205z"/>
		<path d="M208.2,227.5L208.2,227.5l-1.4,0.7l-0.2-0.8l1.7-0.9h0.9v7.8h-1V227.5z"/>
	</g>
	<g class="st3">
		<path d="M205,253.5v0.8h-3v-0.8H205z"/>
		<path d="M205.9,257.2v-0.6l0.8-0.8c2-1.9,2.9-2.9,2.9-4.1c0-0.8-0.4-1.5-1.5-1.5c-0.7,0-1.3,0.4-1.7,0.7l-0.3-0.7
			c0.5-0.5,1.3-0.8,2.2-0.8c1.7,0,2.4,1.2,2.4,2.3c0,1.4-1,2.6-2.7,4.2l-0.6,0.6v0h3.5v0.9H205.9z"/>
	</g>
	<g class="st3">
		<path d="M205,276.4v0.8h-3v-0.8H205z"/>
		<path d="M206.2,278.8c0.3,0.2,1,0.5,1.7,0.5c1.4,0,1.8-0.9,1.8-1.5c0-1.1-1-1.6-2-1.6h-0.6v-0.8h0.6c0.8,0,1.7-0.4,1.7-1.3
			c0-0.6-0.4-1.2-1.4-1.2c-0.6,0-1.2,0.3-1.6,0.5l-0.3-0.8c0.4-0.3,1.2-0.6,2-0.6c1.5,0,2.2,0.9,2.2,1.9c0,0.8-0.5,1.5-1.4,1.8v0
			c1,0.2,1.7,0.9,1.7,2c0,1.2-1,2.3-2.8,2.3c-0.9,0-1.6-0.3-2-0.5L206.2,278.8z"/>
	</g>
	<g class="st3">
		<path d="M205,299.3v0.8h-3v-0.8H205z"/>
		<path d="M209.2,302.9v-2.1h-3.6v-0.7l3.5-5h1.1v4.8h1.1v0.8h-1.1v2.1H209.2z M209.2,300v-2.6c0-0.4,0-0.8,0-1.2h0
			c-0.2,0.5-0.4,0.8-0.6,1.2l-1.9,2.7v0H209.2z"/>
	</g>
	<g class="st3">
		<path d="M205,322.1v0.8h-3v-0.8H205z"/>
		<path d="M210.6,318.9h-3l-0.3,2c0.2,0,0.3,0,0.6,0c0.6,0,1.2,0.1,1.7,0.4c0.6,0.3,1.1,1,1.1,2c0,1.5-1.2,2.7-2.9,2.7
			c-0.9,0-1.6-0.2-1.9-0.5l0.3-0.8c0.3,0.2,1,0.4,1.7,0.4c1,0,1.8-0.6,1.8-1.7c0-1-0.7-1.7-2.2-1.7c-0.4,0-0.8,0-1.1,0.1l0.5-3.7
			h3.7V318.9z"/>
	</g>
	<g class="st3">
		<path d="M205,345v0.8h-3V345H205z"/>
		<path d="M210.4,341.6c-0.2,0-0.5,0-0.8,0c-1.7,0.3-2.5,1.5-2.7,2.8h0c0.4-0.5,1-0.9,1.9-0.9c1.4,0,2.4,1,2.4,2.5
			c0,1.4-1,2.7-2.6,2.7c-1.7,0-2.8-1.3-2.8-3.3c0-1.5,0.6-2.7,1.3-3.5c0.6-0.6,1.5-1,2.5-1.2c0.3,0,0.6-0.1,0.8-0.1V341.6z
			 M210.1,346.1c0-1.1-0.6-1.8-1.6-1.8c-0.6,0-1.2,0.4-1.5,1c-0.1,0.1-0.1,0.3-0.1,0.5c0,1.3,0.6,2.2,1.7,2.2
			C209.5,348,210.1,347.2,210.1,346.1z"/>
	</g>
	<g class="st3">
		<path d="M205,367.9v0.8h-3v-0.8H205z"/>
		<path d="M211,363.7v0.7l-3.4,7.1h-1.1l3.4-6.9v0h-3.8v-0.9H211z"/>
	</g>
	<g class="st3">
		<path d="M204.5,181.8L204.5,181.8l-1.4,0.7l-0.2-0.8l1.7-0.9h0.9v7.8h-1V181.8z"/>
	</g>
	<g class="st3">
		<path d="M202.2,165.7v-0.6l0.8-0.8c2-1.9,2.9-2.9,2.9-4.1c0-0.8-0.4-1.5-1.5-1.5c-0.7,0-1.3,0.4-1.7,0.7l-0.3-0.7
			c0.5-0.5,1.3-0.8,2.2-0.8c1.7,0,2.4,1.2,2.4,2.3c0,1.4-1,2.6-2.7,4.2l-0.6,0.6v0h3.5v0.9H202.2z"/>
	</g>
	<g class="st3">
		<path d="M202.5,141.6c0.3,0.2,1,0.5,1.7,0.5c1.4,0,1.8-0.9,1.8-1.5c0-1.1-1-1.6-2-1.6h-0.6v-0.8h0.6c0.8,0,1.7-0.4,1.7-1.3
			c0-0.6-0.4-1.2-1.4-1.2c-0.6,0-1.2,0.3-1.6,0.5l-0.3-0.8c0.4-0.3,1.2-0.6,2-0.6c1.5,0,2.2,0.9,2.2,1.9c0,0.8-0.5,1.5-1.4,1.8v0
			c1,0.2,1.7,0.9,1.7,2c0,1.2-1,2.3-2.8,2.3c-0.9,0-1.6-0.3-2-0.5L202.5,141.6z"/>
	</g>
	<g class="st3">
		<path d="M205.5,120v-2.1h-3.6v-0.7l3.5-5h1.1v4.8h1.1v0.8h-1.1v2.1H205.5z M205.5,117v-2.6c0-0.4,0-0.8,0-1.2h0
			c-0.2,0.5-0.4,0.8-0.6,1.2l-1.9,2.7v0H205.5z"/>
	</g>
	<g class="st3">
		<path d="M206.9,90.2h-3l-0.3,2c0.2,0,0.3,0,0.6,0c0.6,0,1.2,0.1,1.7,0.4c0.6,0.3,1.1,1,1.1,2c0,1.5-1.2,2.7-2.9,2.7
			c-0.9,0-1.6-0.2-1.9-0.5l0.3-0.8c0.3,0.2,1,0.4,1.7,0.4c1,0,1.8-0.6,1.8-1.7c0-1-0.7-1.7-2.2-1.7c-0.4,0-0.8,0-1.1,0.1l0.5-3.7
			h3.7V90.2z"/>
	</g>
	<g class="st3">
		<path d="M206.7,67.2c-0.2,0-0.5,0-0.8,0c-1.7,0.3-2.5,1.5-2.7,2.8h0c0.4-0.5,1-0.9,1.9-0.9c1.4,0,2.4,1,2.4,2.5
			c0,1.4-1,2.7-2.6,2.7c-1.7,0-2.8-1.3-2.8-3.3c0-1.5,0.6-2.7,1.3-3.5c0.6-0.6,1.5-1,2.5-1.2c0.3,0,0.6-0.1,0.8-0.1V67.2z
			 M206.4,71.7c0-1.1-0.6-1.8-1.6-1.8c-0.6,0-1.2,0.4-1.5,1c-0.1,0.1-0.1,0.3-0.1,0.5c0,1.3,0.6,2.2,1.7,2.2
			C205.8,73.5,206.4,72.8,206.4,71.7z"/>
	</g>
	<g class="st3">
		<path d="M207.3,43.6v0.7l-3.4,7.1h-1.1l3.4-6.9v0h-3.8v-0.9H207.3z"/>
	</g>
	<g class="st3">
		<path d="M182.2,207.8v0.8h-3v-0.8H182.2z"/>
		<path d="M185.3,204.6L185.3,204.6l-1.4,0.7l-0.2-0.8l1.7-0.9h0.9v7.8h-1V204.6z"/>
	</g>
	<g class="st3">
		<path d="M159.3,207.8v0.8h-3v-0.8H159.3z"/>
		<path d="M160.2,211.4v-0.6l0.8-0.8c2-1.9,2.9-2.9,2.9-4.1c0-0.8-0.4-1.5-1.5-1.5c-0.7,0-1.3,0.4-1.7,0.7l-0.3-0.7
			c0.5-0.5,1.3-0.8,2.2-0.8c1.7,0,2.4,1.2,2.4,2.3c0,1.4-1,2.6-2.7,4.2l-0.6,0.6v0h3.5v0.9H160.2z"/>
	</g>
	<g class="st3">
		<path d="M136.4,207.8v0.8h-3v-0.8H136.4z"/>
		<path d="M137.6,210.2c0.3,0.2,1,0.5,1.7,0.5c1.4,0,1.8-0.9,1.8-1.5c0-1.1-1-1.6-2-1.6h-0.6v-0.8h0.6c0.8,0,1.7-0.4,1.7-1.3
			c0-0.6-0.4-1.2-1.4-1.2c-0.6,0-1.2,0.3-1.6,0.5l-0.3-0.8c0.4-0.3,1.2-0.6,2-0.6c1.5,0,2.2,0.9,2.2,1.9c0,0.8-0.5,1.5-1.4,1.8v0
			c1,0.2,1.7,0.9,1.7,2c0,1.2-1,2.3-2.8,2.3c-0.9,0-1.6-0.3-2-0.5L137.6,210.2z"/>
	</g>
	<g class="st3">
		<path d="M113.6,207.8v0.8h-3v-0.8H113.6z"/>
		<path d="M117.7,211.4v-2.1h-3.6v-0.7l3.5-5h1.1v4.8h1.1v0.8h-1.1v2.1H117.7z M117.7,208.5v-2.6c0-0.4,0-0.8,0-1.2h0
			c-0.2,0.5-0.4,0.8-0.6,1.2l-1.9,2.7v0H117.7z"/>
	</g>
	<g class="st3">
		<path d="M90.7,207.8v0.8h-3v-0.8H90.7z"/>
		<path d="M96.2,204.5h-3l-0.3,2c0.2,0,0.3,0,0.6,0c0.6,0,1.2,0.1,1.7,0.4c0.6,0.3,1.1,1,1.1,2c0,1.5-1.2,2.7-2.9,2.7
			c-0.9,0-1.6-0.2-1.9-0.5l0.3-0.8c0.3,0.2,1,0.4,1.7,0.4c1,0,1.8-0.6,1.8-1.7c0-1-0.7-1.7-2.2-1.7c-0.4,0-0.8,0-1.1,0.1l0.5-3.7
			h3.7V204.5z"/>
	</g>
	<g class="st3">
		<path d="M67.8,207.8v0.8h-3v-0.8H67.8z"/>
		<path d="M73.2,204.4c-0.2,0-0.5,0-0.8,0c-1.7,0.3-2.5,1.5-2.7,2.8h0c0.4-0.5,1-0.9,1.9-0.9c1.4,0,2.4,1,2.4,2.5
			c0,1.4-1,2.7-2.6,2.7c-1.7,0-2.8-1.3-2.8-3.3c0-1.5,0.6-2.7,1.3-3.5c0.6-0.6,1.5-1,2.5-1.2c0.3,0,0.6-0.1,0.8-0.1V204.4z
			 M72.9,208.9c0-1.1-0.6-1.8-1.6-1.8c-0.6,0-1.2,0.4-1.5,1c-0.1,0.1-0.1,0.3-0.1,0.5c0,1.3,0.6,2.2,1.7,2.2
			C72.3,210.7,72.9,210,72.9,208.9z"/>
	</g>
	<g class="st3">
		<path d="M44.9,207.8v0.8h-3v-0.8H44.9z"/>
		<path d="M50.9,203.6v0.7l-3.4,7.1h-1.1l3.4-6.9v0H46v-0.9H50.9z"/>
	</g>
	<g class="st3">
		<path d="M227.4,204.6L227.4,204.6l-1.4,0.7l-0.2-0.8l1.7-0.9h0.9v7.8h-1V204.6z"/>
	</g>
	<g class="st3">
		<path d="M248,211.4v-0.6l0.8-0.8c2-1.9,2.9-2.9,2.9-4.1c0-0.8-0.4-1.5-1.5-1.5c-0.7,0-1.3,0.4-1.7,0.7l-0.3-0.7
			c0.5-0.5,1.3-0.8,2.2-0.8c1.7,0,2.4,1.2,2.4,2.3c0,1.4-1,2.6-2.7,4.2l-0.6,0.6v0h3.5v0.9H248z"/>
	</g>
	<g class="st3">
		<path d="M271.1,210.2c0.3,0.2,1,0.5,1.7,0.5c1.4,0,1.8-0.9,1.8-1.5c0-1.1-1-1.6-2-1.6H272v-0.8h0.6c0.8,0,1.7-0.4,1.7-1.3
			c0-0.6-0.4-1.2-1.4-1.2c-0.6,0-1.2,0.3-1.6,0.5l-0.3-0.8c0.4-0.3,1.2-0.6,2-0.6c1.5,0,2.2,0.9,2.2,1.9c0,0.8-0.5,1.5-1.4,1.8v0
			c1,0.2,1.7,0.9,1.7,2c0,1.2-1,2.3-2.8,2.3c-0.9,0-1.6-0.3-2-0.5L271.1,210.2z"/>
	</g>
	<g class="st3">
		<path d="M297,211.4v-2.1h-3.6v-0.7l3.5-5h1.1v4.8h1.1v0.8H298v2.1H297z M297,208.5v-2.6c0-0.4,0-0.8,0-1.2h0
			c-0.2,0.5-0.4,0.8-0.6,1.2l-1.9,2.7v0H297z"/>
	</g>
	<g class="st3">
		<path d="M321.2,204.5h-3l-0.3,2c0.2,0,0.3,0,0.6,0c0.6,0,1.2,0.1,1.7,0.4c0.6,0.3,1.1,1,1.1,2c0,1.5-1.2,2.7-2.9,2.7
			c-0.9,0-1.6-0.2-1.9-0.5l0.3-0.8c0.3,0.2,1,0.4,1.7,0.4c1,0,1.8-0.6,1.8-1.7c0-1-0.7-1.7-2.2-1.7c-0.4,0-0.8,0-1.1,0.1l0.5-3.7
			h3.7V204.5z"/>
	</g>
	<g class="st3">
		<path d="M343.9,204.4c-0.2,0-0.5,0-0.8,0c-1.7,0.3-2.5,1.5-2.7,2.8h0c0.4-0.5,1-0.9,1.9-0.9c1.4,0,2.4,1,2.4,2.5
			c0,1.4-1,2.7-2.6,2.7c-1.7,0-2.8-1.3-2.8-3.3c0-1.5,0.6-2.7,1.3-3.5c0.6-0.6,1.5-1,2.5-1.2c0.3,0,0.6-0.1,0.8-0.1V204.4z
			 M343.6,208.9c0-1.1-0.6-1.8-1.6-1.8c-0.6,0-1.2,0.4-1.5,1c-0.1,0.1-0.1,0.3-0.1,0.5c0,1.3,0.6,2.2,1.7,2.2
			C343,210.7,343.6,210,343.6,208.9z"/>
	</g>
	<g class="st3">
		<path d="M367.4,203.6v0.7l-3.4,7.1h-1.1l3.4-6.9v0h-3.8v-0.9H367.4z"/>
	</g>
	<line class="st4" x1="314.4" y1="85.7" x2="268.6" y2="39.9"/>
	<line class="st4" x1="383" y1="154.3" x2="314.4" y2="85.7"/>
	<line class="st4" x1="310.3" y1="314.4" x2="245.7" y2="245.7"/>
	<line class="st4" x1="222.9" y1="177.1" x2="245.7" y2="245.7"/>
	<line class="st4" x1="131.4" y1="360.1" x2="108.5" y2="316.6"/>
	<line class="st4" x1="154.3" y1="222.9" x2="108.5" y2="316.6"/>
	<line class="st4" x1="17" y1="131.4" x2="85.7" y2="62.8"/>
	<line class="st4" x1="131.4" y1="17" x2="85.7" y2="62.8"/>
</g>
<g id="lines">
	<circle class="st5" cx="85.7" cy="62.8" r="4.1"/>
	<circle class="st5" cx="314.4" cy="85.7" r="4.1"/>
	<circle class="st5" cx="245.7" cy="245.7" r="4.1"/>
	<circle class="st5" cx="108.5" cy="316.6" r="4.1"/>
	<polygon class="st6" points="108.5,316.6 85.7,62.8 314.4,85.7 245.7,245.7 	"/>
	<polygon class="st7" points="108.5,316.6 85.7,62.8 314.4,85.7 245.7,245.7 	"/>
</g>
<g id="curves">
	<circle class="st8" cx="268.6" cy="39.9" r="4.1"/>
	<circle class="st8" cx="131.4" cy="17" r="4.1"/>
	<circle class="st8" cx="17" cy="131.4" r="4.1"/>
	<circle class="st8" cx="131.4" cy="360.1" r="4.1"/>
	<circle class="st8" cx="314.4" cy="314.4" r="4.1"/>
	<circle class="st8" cx="154.3" cy="222.9" r="4.1"/>
	<circle class="st8" cx="383" cy="154.3" r="4.1"/>
	<circle class="st8" cx="222.9" cy="177.1" r="4.1"/>
	<path class="st9" d="M108.5,316.6C154.3,222.9,17,131.4,85.6,62.8C131.4,17,268.6,39.9,314.3,85.7c68.6,68.6-91.5,91.5-68.6,160.1
		C314.3,314.3,131.4,360.1,108.5,316.6z"/>
</g>
</svg>
