<?xml version="1.0" encoding="UTF-8"?>
<svg id="Camada_2" data-name="Camada 2" xmlns="http://www.w3.org/2000/svg" viewBox="0 0 1136.73 1330.84">
  <defs>
    <style>
      .cls-1 {
        fill: #fff;
      }

      .cls-2 {
        fill: #080717;
      }

      .cls-3 {
        fill: #6cf;
      }
    </style>
  </defs>
  <g id="_Layer_" data-name="&amp;lt;Layer&amp;gt;">
    <g>
      <path class="cls-2" d="m1049.25,966.89l-302.95-485.71-220.99,220.99-281.95,350.54,96.42,278.14h558.93v-99.01l10.11-.38c132.91-4.95,210.81-151.72,140.43-264.57Z"/>
      <g>
        <path class="cls-2" d="m-12.59,956.88h244.76c66.04,0,119.66,53.62,119.66,119.66h0c0,66.04-53.62,119.66-119.66,119.66H-12.59v-239.32h0Z" transform="translate(1050.79 1717.84) rotate(135)"/>
        <path class="cls-1" d="m125.39,1246.1c-32.11,0-64.22-12.22-88.66-36.67-23.68-23.68-36.73-55.17-36.73-88.67s13.04-64.98,36.73-88.66l4.05,4.05-4.05-4.05,173.07-173.07c1.07-1.07,2.53-1.68,4.05-1.68s2.98.6,4.05,1.68l169.23,169.23c2.24,2.24,2.24,5.86,0,8.1l-173.07,173.07c-24.44,24.45-56.55,36.67-88.66,36.67Zm88.45-374.91l-169.02,169.02c-44.42,44.42-44.42,116.7,0,161.13,44.42,44.42,116.7,44.42,161.13,0l169.02-169.02-161.13-161.13Z"/>
      </g>
      <g>
        <g>
          <path class="cls-1" d="m598.92,634.59l-67.26,128.54c-17.84,34.09-67.47,31.48-81.63-4.29l-110.88-279.97,167.92-68.72,91.85,224.44Z"/>
          <path class="cls-2" d="m491.94,792.98c-.92,0-1.85-.02-2.78-.07-20.04-1.05-37.08-13.3-44.47-31.95l-110.88-279.97c-1.16-2.92.25-6.22,3.16-7.41l167.92-68.72c2.93-1.2,6.27.2,7.47,3.13l91.85,224.44c.64,1.56.56,3.33-.23,4.83l-67.26,128.54c-8.87,16.95-25.86,27.19-44.79,27.19Zm-145.38-310.95l108.79,274.7c5.72,14.44,18.91,23.92,34.41,24.73,15.51.82,29.62-7.23,36.82-20.99l66.03-126.18-88.67-216.67-157.38,64.41Z"/>
        </g>
        <path class="cls-2" d="m551.06,543.68l-54.31-132.7-157.87,64.61,58.14,142.06c58.03-.06,115.29-25.62,154.04-73.97Z"/>
        <path class="cls-2" d="m448.41,138.09l-43.1,8.86c-100.41,20.65-173.69,103.02-177.72,199.78l-4.87,116.84c-1.82,43.68,33.83,80.31,80.07,82.28l177.39,7.53-31.78-415.29Z"/>
        <path class="cls-2" d="m367.21,148.72l50.34-7.69c117.29-17.91,227.3,35.6,266.8,129.77l47.7,113.72c17.83,42.51-7.86,92.37-57.71,111.96l-191.24,75.18-115.89-422.94Z"/>
        <path class="cls-2" d="m388.26,196.6c-2.14,0-4.19-1.2-5.18-3.27l-49.19-103.25c-8.21-17.23-6.7-36.95,4.13-54.12,1.69-2.68,5.23-3.48,7.9-1.79,2.68,1.69,3.48,5.23,1.79,7.9-8.82,13.98-10.05,29.28-3.47,43.08l49.19,103.25c1.36,2.86.15,6.27-2.71,7.64-.8.38-1.63.56-2.46.56Z"/>
        <path class="cls-2" d="m390.37,192.2l-36.59-106.99c-11.46-33.51,10.81-69.22,47.55-76.24l40.68-7.78c40.51-7.74,77.31,23.04,73.98,61.88l-10.95,127.38-114.67,1.73Z"/>
        <g>
          <path class="cls-1" d="m683.4,310.69c-10.74-27.67-41.87-41.4-69.54-30.66l-.89.35c-30.13-79.63-96.17-132.81-168.11-126.95-79.57,6.48-140.31,83.07-149.33,179.7-24.66,3.1-44.65,23.07-46.81,48.82h0c-2.48,29.58,19.49,55.56,49.06,58.04l9.31.78c27.67,86.62,96.81,145.85,172.51,139.69,82.73-6.73,145.11-89.26,150.16-191.3l22.97-8.91c27.67-10.74,41.4-41.87,30.66-69.54Z"/>
          <path class="cls-2" d="m468.66,586.62c-34.25,0-67.56-12.6-96.96-36.8-30.42-25.04-54.78-61.75-68.86-103.67l-5.53-.46c-32.68-2.74-57.03-31.55-54.29-64.22,2.2-26.29,21.76-48.02,47.26-53.28,5.14-46.64,22.47-89.94,49.03-122.36,28.07-34.25,65.39-54.89,105.09-58.12,36.28-2.95,72.14,8.32,103.69,32.59,29.27,22.52,52.77,54.53,68.21,92.84,13.54-4.06,27.93-3.19,41,2.57,14.53,6.41,25.7,18.09,31.45,32.9h0c5.75,14.81,5.38,30.97-1.03,45.5-6.41,14.53-18.09,25.7-32.9,31.45l-19.53,7.58c-3.13,49.49-19.73,95.85-46.93,130.9-28.47,36.69-66.93,58.74-108.27,62.11-3.81.31-7.62.46-11.41.46Zm-12.98-427.91c-3.45,0-6.9.14-10.37.42-37.1,3.02-70.69,21.68-97.15,53.96-25.97,31.68-42.63,74.49-46.93,120.56-.25,2.68-2.32,4.82-4.99,5.15-22.35,2.81-39.93,21.15-41.81,43.62-2.21,26.38,17.45,49.64,43.83,51.85l9.31.78c2.31.19,4.27,1.76,4.98,3.97,13.21,41.36,36.8,77.57,66.43,101.96,27.31,22.48,58.14,34.19,89.73,34.19,3.47,0,6.95-.14,10.43-.42,38.1-3.1,73.67-23.6,100.15-57.71,26.46-34.09,42.35-79.6,44.75-128.16.11-2.26,1.54-4.24,3.65-5.06l22.97-8.92c11.96-4.64,21.39-13.66,26.56-25.39,5.17-11.73,5.47-24.78.83-36.73h0c-4.64-11.96-13.66-21.39-25.39-26.56-11.73-5.17-24.78-5.47-36.74-.83l-.89.35c-1.42.55-3.01.51-4.41-.11-1.4-.62-2.48-1.78-3.02-3.21-14.62-38.62-37.61-70.79-66.51-93.02-26.22-20.17-55.56-30.67-85.41-30.67Z"/>
        </g>
        <path class="cls-2" d="m519.3,159.74c-24.05-13.25-50.4-19.68-77.54-17.47-81.92,6.67-144.13,89.57-152.97,194.46-5.39.69-10.54,2.25-15.36,4.48,96.71-2.98,189.93-72.96,245.87-181.47Z"/>
        <path class="cls-2" d="m338.51,356.3c-2.72,0-5.13-1.94-5.63-4.71-.56-3.11,1.5-6.09,4.62-6.66,36.04-6.53,70.7-25.63,100.22-55.22,29.52-29.59,53.15-68.87,68.34-113.58,1.02-3,4.27-4.6,7.27-3.58,3,1.02,4.6,4.27,3.58,7.27-15.75,46.37-40.33,87.17-71.08,117.99-31.18,31.26-67.94,51.45-106.29,58.41-.35.06-.69.09-1.03.09Z"/>
        <path class="cls-2" d="m494.04,264.54c-.98,0-1.98-.25-2.89-.79-2.73-1.6-3.65-5.11-2.05-7.84,15.82-27.04,23.89-58.44,24-93.33,0-3.16,2.57-5.71,5.73-5.71h.02c3.16,0,5.72,2.58,5.71,5.75-.12,36.94-8.72,70.27-25.57,99.08-1.07,1.82-2.98,2.84-4.95,2.84Z"/>
        <path class="cls-2" d="m624.11,353.15c-2.56,0-4.9-1.73-5.55-4.33-6.34-25.23,13.38-39.7,14.22-40.31,2.57-1.84,6.15-1.25,7.99,1.32,1.84,2.56,1.25,6.13-1.3,7.98-.64.47-14.21,10.7-9.8,28.22.77,3.07-1.09,6.18-4.16,6.95-.47.12-.94.17-1.4.17Z"/>
        <path class="cls-2" d="m294.75,404c-.1,0-.19,0-.29,0-3.15-.16-5.58-2.83-5.44-5.98.03-.79.45-17.78-16-25.22-2.88-1.3-4.16-4.7-2.86-7.58,1.3-2.88,4.7-4.16,7.58-2.86,23.71,10.72,22.78,35.17,22.73,36.2-.15,3.06-2.68,5.45-5.72,5.45Z"/>
        <path class="cls-2" d="m403.93,371.01c1.64,10.78,8.53,18.68,15.39,17.63,6.86-1.04,11.09-10.63,9.46-21.41-1.64-10.78-8.53-18.68-15.39-17.63s-11.09,10.63-9.46,21.41Z"/>
        <ellipse class="cls-2" cx="527.12" cy="359.62" rx="12.57" ry="19.75" transform="translate(-27.43 43.94) rotate(-4.65)"/>
        <path class="cls-2" d="m470.81,514.85c-.24,0-.48-.02-.73-.05-36.53-4.64-55.75-29.29-56.55-30.33-1.92-2.51-1.44-6.11,1.07-8.03,2.51-1.92,6.1-1.44,8.02,1.06.21.27,17.32,21.93,48.9,25.94,3.14.4,5.36,3.27,4.96,6.4-.37,2.89-2.83,5.01-5.68,5.01Z"/>
        <path class="cls-2" d="m485.42,450.03c-2.43,0-4.69-1.56-5.46-4-.96-3.02.71-6.24,3.73-7.19,4.18-1.33,7.49-4.25,9.31-8.25,1.82-3.99,1.87-8.41.12-12.44l-16.74-38.73c-1.26-2.9.08-6.28,2.99-7.53,2.91-1.25,6.28.08,7.53,2.99l16.74,38.73c3,6.94,2.92,14.86-.22,21.74-3.14,6.88-9.07,12.13-16.27,14.41-.58.18-1.16.27-1.73.27Z"/>
        <g>
          <path class="cls-3" d="m405.76,431.68c-15.38,0-30.1-5.39-41.95-15.46-13.23-11.23-21.28-26.95-22.69-44.24-1.41-17.3,4-34.11,15.24-47.33s26.95-21.28,44.24-22.69c17.3-1.41,34.11,4,47.33,15.24,13.23,11.23,21.28,26.95,22.69,44.24h0c1.41,17.3-4,34.11-15.24,47.33-11.24,13.23-26.95,21.28-44.24,22.69-1.8.15-3.59.22-5.38.22Zm.2-118.49c-1.47,0-2.95.06-4.43.18-14.25,1.16-27.19,7.8-36.44,18.69-9.25,10.89-13.71,24.74-12.55,38.98,1.16,14.25,7.8,27.19,18.69,36.44,10.89,9.25,24.74,13.72,38.98,12.55,14.25-1.16,27.19-7.8,36.44-18.69,9.25-10.89,13.71-24.74,12.55-38.98h0c-1.16-14.25-7.8-27.19-18.69-36.44-9.76-8.29-21.89-12.73-34.56-12.73Z"/>
          <path class="cls-3" d="m544.32,420.41c-33.46,0-61.95-25.78-64.71-59.7-2.91-35.71,23.78-67.12,59.48-70.02,35.7-2.91,67.12,23.78,70.02,59.48h0c2.91,35.71-23.78,67.12-59.48,70.02-1.78.14-3.56.22-5.32.22Zm.09-118.48c-1.45,0-2.91.06-4.38.18-29.41,2.39-51.39,28.27-48.99,57.67,2.39,29.41,28.26,51.39,57.67,48.99,29.41-2.39,51.38-28.27,48.99-57.67h0c-2.27-27.94-25.74-49.17-53.29-49.17Z"/>
          <path class="cls-3" d="m469.18,373.15c-2.95,0-5.46-2.27-5.7-5.26-.26-3.15,2.09-5.92,5.25-6.17l12.06-.98c3.15-.25,5.92,2.09,6.17,5.25.26,3.15-2.09,5.92-5.25,6.17l-12.06.98c-.16.01-.31.02-.47.02Z"/>
          <path class="cls-3" d="m368.91,158.77c-2.19,0-4.27-1.26-5.23-3.38-1.3-2.89-.01-6.28,2.87-7.58,84.11-37.84,145.7-16.63,148.28-15.71,2.98,1.06,4.53,4.34,3.47,7.32-1.06,2.98-4.34,4.53-7.31,3.47h0c-.59-.21-60.08-20.48-139.73,15.37-.76.34-1.56.51-2.35.51Z"/>
        </g>
      </g>
      <g>
        <path class="cls-3" d="m89.78,1211.56l49.85,49.85c27.53,27.53,72.17,27.53,99.7,0l795.74-795.74-149.55-149.55L89.78,1111.86c-27.53,27.53-27.53,72.17,0,99.7Z"/>
        <rect class="cls-2" x="218.65" y="1023.46" width="11.46" height="209.5" transform="translate(-732.05 489.11) rotate(-45)"/>
        <path class="cls-2" d="m282.33,1218.4l-149.55-149.55-43.01,43.01c-27.53,27.53-27.53,72.17,0,99.7l49.85,49.85c27.53,27.53,72.17,27.53,99.7,0l43.01-43.01Z"/>
        <path class="cls-1" d="m189.47,1287.78c-20.36,0-39.5-7.93-53.9-22.32l-49.85-49.85c-14.4-14.4-22.32-33.54-22.32-53.9s7.93-39.5,22.32-53.9l43.01-43.01c2.24-2.24,5.86-2.24,8.1,0,2.24,2.24,2.24,5.86,0,8.1l-43.01,43.01c-12.23,12.23-18.97,28.5-18.97,45.8s6.74,33.57,18.97,45.8l49.85,49.85c12.23,12.23,28.5,18.97,45.8,18.97s33.57-6.74,45.8-18.97l43.01-43.01c2.24-2.24,5.86-2.24,8.1,0,2.24,2.24,2.24,5.86,0,8.1l-43.01,43.01c-14.4,14.4-33.54,22.32-53.9,22.32Z"/>
        <g>
          <polygon class="cls-1" points="897.21 316.43 1126.44 224.74 1034.75 453.97 897.21 316.43"/>
          <path class="cls-2" d="m1116.16,235.03l-83.5,208.75-125.25-125.25,208.75-83.5h0Zm20.57-20.57h0,0Zm0,0l-249.71,99.88,149.83,149.83,99.88-249.71h0Z"/>
        </g>
        <polygon class="cls-2" points="1014.48 263.36 1087.83 336.7 1136.72 214.46 1014.48 263.36"/>
      </g>
      <g>
        <g>
          <path class="cls-1" d="m274.1,805.16l54.78-54.78,123.09,1.89c10.34.16,18.27,9.24,17.04,19.51h0c-2.5,20.81-19.06,37.12-39.9,39.29l-111.19,11.62-43.83-17.53Z"/>
          <path class="cls-2" d="m317.92,828.42c-.73,0-1.45-.14-2.13-.41l-43.83-17.53c-1.79-.72-3.1-2.28-3.48-4.17s.2-3.84,1.56-5.2l54.78-54.78c1.1-1.1,2.58-1.7,4.14-1.68l123.09,1.89c6.55.1,12.78,2.99,17.09,7.92,4.31,4.93,6.33,11.49,5.55,18-2.83,23.62-21.34,41.84-44.99,44.31l-111.19,11.62c-.2.02-.4.03-.6.03Zm-33.63-25.35l34.45,13.78,109.78-11.47c18.3-1.91,32.62-16.01,34.81-34.28.4-3.34-.6-6.57-2.81-9.1-2.21-2.53-5.28-3.95-8.64-4l-120.66-1.86-46.93,46.93Z"/>
        </g>
        <g>
          <path class="cls-1" d="m334.92,751.73h60.89v167.67c0,8.28-6.72,15-15,15h-2.14c-24.14,0-43.75-19.6-43.75-43.75v-138.93h0Z" transform="translate(-489.12 505.28) rotate(-45)"/>
          <path class="cls-2" d="m408.42,916.79c-13.22,0-25.64-5.15-34.98-14.49l-98.24-98.24c-2.24-2.24-2.24-5.86,0-8.1l43.06-43.06c1.07-1.07,2.53-1.68,4.05-1.68s2.98.6,4.05,1.68l118.56,118.56c8.08,8.08,8.08,21.24,0,29.32l-1.52,1.52c-9.34,9.34-21.77,14.49-34.98,14.49Zm-121.07-116.78l94.19,94.19c7.18,7.18,16.73,11.14,26.88,11.14s19.7-3.95,26.88-11.14c0,0,0,0,0,0l1.51-1.51c3.62-3.62,3.62-9.5,0-13.12l-114.51-114.51-34.96,34.96Z"/>
        </g>
        <g>
          <path class="cls-1" d="m397.36,940.23l1.51-1.51c5.86-5.86,5.86-15.36,0-21.22l-118.56-118.56-43.06,43.06,98.24,98.24c17.08,17.08,44.78,17.08,61.87,0Z"/>
          <path class="cls-2" d="m366.43,958.77c-13.22,0-25.64-5.15-34.98-14.49l-98.24-98.24c-2.24-2.24-2.24-5.86,0-8.1l43.06-43.06c1.07-1.07,2.53-1.68,4.05-1.68s2.98.6,4.05,1.68l118.56,118.56c3.92,3.92,6.07,9.12,6.07,14.66s-2.16,10.74-6.07,14.66l-1.51,1.51c-9.34,9.34-21.77,14.49-34.98,14.49Zm-121.07-116.78l94.19,94.19c7.18,7.18,16.73,11.14,26.88,11.14s19.7-3.95,26.88-11.14c0,0,0,0,0,0l1.51-1.51c1.75-1.75,2.72-4.08,2.72-6.56s-.96-4.81-2.72-6.56l-114.51-114.51-34.96,34.95Z"/>
        </g>
        <g>
          <path class="cls-1" d="m329.01,955.86l1.51-1.51c5.86-5.86,5.86-15.36,0-21.22l-92.2-92.2-20.35,20.35c-14.22,14.22-20.57,34.51-16.98,54.3l11.76,64.96,40.59-38.49,13.81,13.81c17.08,17.08,44.78,17.08,61.87,0Z"/>
          <path class="cls-2" d="m212.75,986.27c-.6,0-1.2-.09-1.78-.28-2-.65-3.48-2.35-3.85-4.42l-11.76-64.96c-3.92-21.63,3.03-43.83,18.57-59.37l20.35-20.35c2.24-2.24,5.86-2.24,8.1,0l92.2,92.2c3.92,3.92,6.07,9.12,6.07,14.66s-2.16,10.74-6.07,14.66l-1.51,1.51h0c-19.29,19.29-50.68,19.29-69.97,0l-9.86-9.86-36.54,34.65c-1.08,1.02-2.5,1.57-3.94,1.57Zm25.57-137.24l-16.3,16.3c-12.89,12.89-18.64,31.29-15.4,49.23l9.87,54.53,32.9-31.2c2.25-2.14,5.8-2.09,7.99.11l13.81,13.81c14.82,14.82,38.94,14.82,53.76,0l1.51-1.51c1.75-1.75,2.72-4.08,2.72-6.56s-.96-4.81-2.72-6.56l-88.15-88.15Zm90.69,106.83h.01-.01Z"/>
        </g>
      </g>
      <g>
        <g>
          <path class="cls-1" d="m911.38,671.47l44.36-99.8c3.69-8.29-.46-17.97-9.01-21.03h0c-13.34-4.77-28.24-.62-37.2,10.35l-24.53,30.03,26.37,80.44Z"/>
          <path class="cls-2" d="m911.38,677.2c-.1,0-.19,0-.29,0-2.37-.12-4.42-1.69-5.15-3.94l-26.37-80.44c-.61-1.86-.23-3.9,1.01-5.41l24.53-30.03c10.47-12.82,27.97-17.69,43.56-12.12,5.57,1.99,10.1,6.25,12.43,11.69,2.33,5.44,2.29,11.66-.12,17.06l-44.36,99.8c-.92,2.08-2.98,3.4-5.23,3.4Zm-19.95-84.98l20.76,63.32,38.32-86.2c1.13-2.54,1.15-5.34.05-7.9-1.09-2.55-3.14-4.47-5.75-5.41-11.03-3.94-23.42-.49-30.83,8.58l-22.54,27.6Z"/>
        </g>
        <g>
          <g>
            <path class="cls-1" d="m909.38,610.29l-50.19-121.94c-2.78-6.74-10.94-9.39-17.14-5.55l-6.06,3.75c-11.51,7.11-17.61,20.46-15.46,33.82l5.81,36.09-2.25,3.75-21.96-38.38c-4.78-8.35-15.5-11.32-23.79-6.43-12.66,7.46-17.79,22.79-12.87,36.18-5.12-6.68-14.46-8.78-21.96-4.48-12.9,7.38-18.17,22.87-13.21,36.37-5.12-6.68-14.46-8.77-21.96-4.48-14.4,8.24-19.39,26.59-11.15,40.99l44.51,77.78-7.74,12.92c-9.2,15.36-11.14,33.99-5.32,50.91l83.78,243.26,43.04,14.42c59.67,19.99,116.89-37.5,95.6-96.73-.15-.43-.31-.85-.46-1.28l-68.15-186.38,7.45-8.44c28.09-31.84,35.65-76.88,19.49-116.15Z"/>
            <path class="cls-2" d="m879.78,1029c-8.72,0-17.53-1.41-26.15-4.29l-43.04-14.42c-1.69-.57-3.02-1.88-3.6-3.57l-83.78-243.26c-6.39-18.57-4.27-38.88,5.82-55.72l6.02-10.04-42.85-74.87c-9.8-17.12-3.84-39.01,13.28-48.81,5.37-3.08,11.58-3.7,17.24-2.16.4-12.05,6.91-23.42,17.94-29.73,5.38-3.08,11.59-3.7,17.25-2.16.41-11.9,6.76-23.16,17.52-29.5,5.3-3.12,11.5-3.97,17.48-2.38,6.05,1.6,11.09,5.47,14.19,10.9l10.31,18.01-2.53-15.72c-2.52-15.7,4.58-31.24,18.11-39.6l6.06-3.75c4.39-2.71,9.72-3.36,14.63-1.77,4.91,1.59,8.85,5.24,10.81,10.01l50.19,121.94c8.34,20.26,10.83,42.38,7.2,63.99-3.63,21.6-13.2,41.71-27.7,58.13l-5.19,5.89,67.45,184.49c10.52,29.26,3.47,61.32-18.4,83.67-15.77,16.11-36.71,24.72-58.27,24.72Zm-62.87-28.68l40.37,13.52c25.73,8.62,53.54,1.88,72.59-17.58,19.05-19.47,24.96-46.3,15.8-71.78l-.45-1.25-68.15-186.38c-.72-1.97-.31-4.18,1.08-5.76l7.45-8.44c13.08-14.82,21.72-32.96,24.99-52.45,3.27-19.49,1.02-39.45-6.5-57.73l-50.19-121.94c-.69-1.68-2.02-2.91-3.75-3.47-1.73-.56-3.53-.34-5.08.61l-6.06,3.75c-9.57,5.92-14.61,16.92-12.82,28.03l5.81,36.09c.21,1.33-.05,2.7-.74,3.85l-2.25,3.75c-1.05,1.74-2.91,2.82-4.97,2.78-2.03-.02-3.9-1.12-4.92-2.88l-21.96-38.38c-1.57-2.75-4.12-4.71-7.19-5.52-2.99-.79-6.09-.37-8.73,1.18-10.08,5.94-14.45,18.25-10.4,29.27.98,2.66-.14,5.63-2.62,7-2.48,1.36-5.59.71-7.31-1.54-3.44-4.49-9.7-5.78-14.57-2.99-10.29,5.89-14.78,18.26-10.68,29.43.98,2.66-.14,5.63-2.62,7-2.48,1.37-5.59.71-7.31-1.54-3.44-4.49-9.7-5.77-14.57-2.99-11.63,6.66-15.68,21.54-9.02,33.17l44.51,77.78c1.03,1.8,1.01,4.01-.06,5.79l-7.74,12.92c-8.35,13.94-10.1,30.74-4.81,46.1l82.86,240.59Z"/>
          </g>
          <path class="cls-2" d="m821.09,655.52c-1.99,0-3.92-1.04-4.98-2.88l-53.56-93.6c-1.57-2.75-.62-6.25,2.13-7.82,2.75-1.57,6.25-.62,7.82,2.13l53.56,93.6c1.57,2.75.62,6.25-2.13,7.82-.9.51-1.88.76-2.84.76Z"/>
          <path class="cls-2" d="m858.89,626.73c-1.99,0-3.92-1.04-4.98-2.88l-56.92-99.46c-1.57-2.75-.62-6.25,2.13-7.82,2.75-1.57,6.25-.62,7.82,2.13l56.92,99.46c1.57,2.75.62,6.25-2.13,7.82-.9.51-1.88.76-2.84.76Z"/>
          <path class="cls-2" d="m782.11,680.23c-1.99,0-3.92-1.04-4.98-2.88l-56.92-99.46c-1.57-2.75-.62-6.25,2.13-7.82,2.75-1.57,6.25-.62,7.82,2.13l56.92,99.46c1.57,2.75.62,6.25-2.13,7.82-.9.51-1.88.76-2.84.76Z"/>
        </g>
      </g>
      <path class="cls-1" d="m898.71,1214.65c-.68,0-1.38-.12-2.06-.38l-11.75-4.52c-26.58-10.22-48.67-28.35-63.88-52.43-15.21-24.08-22.1-51.81-19.91-80.21l5.59-72.69c.24-3.15,2.99-5.52,6.15-5.27,3.15.24,5.52,3,5.27,6.15l-5.59,72.69c-1.99,25.92,4.29,51.23,18.18,73.21,13.88,21.98,34.05,38.53,58.31,47.86l11.75,4.52c2.95,1.14,4.43,4.45,3.29,7.4-.88,2.28-3.05,3.67-5.35,3.67Z"/>
    </g>
  </g>
</svg>